<?xml version="1.0" standalone="no"?>
<!DOCTYPE svg PUBLIC "-//W3C//DTD SVG 20010904//EN"
 "http://www.w3.org/TR/2001/REC-SVG-20010904/DTD/svg10.dtd">
<svg version="1.0" xmlns="http://www.w3.org/2000/svg"
 width="720.000000pt" height="648.000000pt" viewBox="0 0 720.000000 648.000000"
 preserveAspectRatio="xMidYMid meet">
<metadata>
Created by potrace 1.15, written by Peter Selinger 2001-2017
</metadata>
<g transform="translate(0.000000,648.000000) scale(0.100000,-0.100000)"
fill="#000000" stroke="none">
<path d="M1797 6473 c992 -2 2614 -2 3605 0 992 1 181 2 -1802 2 -1983 0
-2794 -1 -1803 -2z"/>
<path d="M3757 4695 c-9 -7 -17 -15 -17 -18 0 -3 -29 -47 -65 -99 -84 -119
-227 -328 -240 -349 -5 -10 -64 -95 -131 -190 -66 -96 -144 -208 -172 -249
-28 -41 -71 -102 -94 -136 -24 -33 -47 -67 -53 -76 -5 -8 -31 -46 -57 -84 -46
-68 -60 -89 -149 -214 -49 -69 -254 -367 -279 -405 -60 -91 -161 -239 -196
-285 -22 -30 -96 -137 -165 -237 -135 -199 -262 -384 -494 -720 -82 -119 -151
-223 -153 -230 -2 -7 -7 -13 -12 -13 -5 0 -24 -25 -42 -55 -18 -30 -36 -55
-40 -55 -5 0 -8 -5 -8 -12 0 -6 -7 -20 -16 -30 -14 -14 -14 -19 -3 -23 8 -3
1065 -4 2349 -3 2109 3 2335 5 2338 19 2 13 -22 51 -67 105 -10 12 -118 176
-315 479 -54 83 -141 215 -193 295 -203 311 -306 468 -355 545 -101 156 -221
341 -248 380 -15 22 -30 47 -34 55 -13 28 -31 56 -62 95 -26 34 -85 125 -119
183 -6 9 -43 66 -83 125 -39 60 -72 110 -72 112 0 2 -44 70 -99 152 -54 81
-120 182 -146 223 -67 104 -181 279 -205 315 -11 17 -42 64 -69 105 -44 69
-61 95 -101 155 -8 13 -32 50 -53 83 -41 66 -55 76 -80 57z m84 -157 c31 -45
96 -144 144 -218 48 -74 110 -167 136 -207 27 -39 49 -73 49 -76 0 -2 38 -62
85 -132 47 -71 84 -134 82 -140 -5 -13 -1137 -19 -1151 -5 -6 6 1 24 20 51 16
23 37 53 46 68 10 14 22 33 28 41 43 61 124 179 216 315 59 88 130 188 156
222 26 35 48 65 48 68 0 6 35 58 59 87 7 10 16 16 20 14 3 -2 31 -42 62 -88z
m606 -930 c38 -57 71 -105 74 -108 3 -3 12 -16 19 -29 6 -13 52 -84 101 -159
48 -74 86 -139 83 -143 -8 -14 -1941 -11 -1950 2 -3 6 8 30 24 52 17 23 93
132 168 242 75 110 146 210 157 223 l20 22 619 0 618 0 67 -102z m335 -509
c19 -32 113 -177 148 -229 16 -25 64 -97 104 -160 41 -63 84 -127 96 -143 48
-61 144 -57 -1394 -57 -773 0 -1407 3 -1410 8 -4 7 225 355 262 396 10 11 41
55 67 96 27 41 56 83 64 93 13 16 75 17 1032 17 l1019 0 12 -21z m479 -737
c42 -64 112 -171 155 -237 44 -66 82 -128 86 -137 7 -17 -81 -18 -1772 -18
-1231 0 -1780 3 -1780 10 0 6 22 43 50 83 27 40 101 146 163 237 l113 165
1440 5 c791 3 1446 6 1454 7 9 2 44 -42 91 -115z m315 -484 c112 -177 387
-593 396 -596 5 -2 8 -10 8 -18 0 -12 -318 -14 -2265 -14 -1633 0 -2265 3
-2265 11 0 6 19 36 43 67 49 67 133 188 162 236 20 33 53 81 111 159 17 23 54
77 83 120 l53 77 1824 0 1824 0 26 -42z"/>
</g>
</svg>
